<svg width="368" height="368" viewBox="0 0 368 368" fill="none" xmlns="http://www.w3.org/2000/svg">
    <g clip-path="url(#clip0_22_13)">
    <path d="M172.064 169.078C172.63 167.382 172.043 165.509 170.61 164.43L137.292 139.441C136.57 138.903 135.694 138.611 134.793 138.609L101.478 138.615C99.173 138.615 97.3088 140.479 97.3133 142.779L97.3091 167.763C97.3135 170.063 99.178 171.928 101.474 171.928L168.111 171.926C168.986 171.926 169.838 171.651 170.547 171.14C171.256 170.628 171.787 169.907 172.064 169.078ZM137.29 229.401L170.608 204.413C172.045 203.338 172.623 201.465 172.062 199.765C171.785 198.936 171.255 198.214 170.545 197.703C169.836 197.192 168.983 196.917 168.109 196.917L101.473 196.916C99.1774 196.916 97.313 198.781 97.3086 201.081L97.3091 226.069C97.3135 228.369 99.1777 230.234 101.474 230.234L134.792 230.234C135.693 230.236 136.57 229.943 137.29 229.401Z" fill="#DA4453"/>
    <path d="M259.013 169.876C259.382 169.253 259.582 168.543 259.592 167.819C259.601 167.094 259.421 166.379 259.069 165.746L249.83 149.083C249.469 148.433 248.941 147.892 248.301 147.515C247.66 147.139 246.93 146.941 246.187 146.942L222.109 146.938C221.4 146.937 220.702 147.119 220.082 147.465C219.463 147.811 218.942 148.31 218.57 148.914C218.16 149.57 217.943 150.329 217.944 151.102C217.944 151.75 218.095 152.388 218.385 152.967L226.714 169.626C227.059 170.318 227.591 170.9 228.249 171.306C228.907 171.713 229.665 171.927 230.439 171.926L255.427 171.925C256.151 171.927 256.864 171.738 257.493 171.379C258.122 171.019 258.646 170.501 259.013 169.876ZM249.829 219.758L259.07 203.103C259.422 202.469 259.602 201.754 259.593 201.029C259.583 200.304 259.385 199.594 259.018 198.969C258.649 198.344 258.124 197.826 257.495 197.466C256.865 197.106 256.153 196.916 255.427 196.914L230.439 196.914C229.666 196.915 228.908 197.13 228.251 197.536C227.593 197.942 227.061 198.524 226.715 199.215L218.385 215.873C218.096 216.452 217.945 217.09 217.945 217.738C217.945 218.512 218.16 219.271 218.567 219.93C218.941 220.533 219.462 221.031 220.082 221.376C220.702 221.721 221.4 221.902 222.11 221.902L246.188 221.907C246.931 221.905 247.66 221.705 248.3 221.327C248.941 220.949 249.468 220.408 249.829 219.758Z" fill="#434A54"/>
    <path d="M302.223 199.819C314.911 195.503 321.346 190.329 321.346 184.425C321.346 178.521 314.911 173.337 302.219 169.026C292.517 165.729 280.692 163.597 272.086 163.597L64.7073 163.603C63.6024 163.603 62.5451 164.039 61.7639 164.82C60.9828 165.601 60.5425 166.663 60.5425 167.768L60.5472 201.081C60.5428 203.381 62.4072 205.246 64.712 205.246L272.086 205.244C280.692 205.244 292.521 203.116 302.223 199.819Z" fill="#E6E9ED"/>
    <path d="M272.086 205.244C280.691 205.243 292.521 203.116 302.223 199.819C314.911 195.503 321.346 190.328 321.346 184.424C321.346 178.52 314.911 173.337 302.218 169.026C292.517 165.729 280.691 163.597 272.086 163.597L272.086 205.244Z" fill="#ED5564"/>
    <path d="M64.7117 205.246L68.872 205.246L68.872 163.599L64.7073 163.603C63.6024 163.603 62.5451 164.039 61.764 164.82C60.9828 165.601 60.5425 166.663 60.5425 167.768L60.5472 201.081C60.5428 203.381 62.407 205.246 64.7117 205.246Z" fill="#FFCE54"/>
    <path d="M60.5416 188.593L60.5416 180.264L68.8708 180.264L68.8705 188.593L60.5416 188.593Z" fill="#F6BB42"/>
    <path d="M97.3086 184.422C97.313 182.122 99.1774 180.257 101.473 180.257L168.109 180.257C170.409 180.262 172.273 182.126 172.273 184.422C172.273 186.727 170.409 188.591 168.109 188.587L101.473 188.587C99.1774 188.587 97.313 186.722 97.3086 184.422Z" fill="#ED5564"/>
    <path d="M259.592 184.42C259.592 182.124 257.728 180.26 255.427 180.255L222.11 180.256C219.809 180.26 217.945 182.125 217.945 184.421C217.945 186.725 219.809 188.589 222.109 188.585L255.427 188.585C257.728 188.589 259.592 186.725 259.592 184.42Z" fill="#656D78"/>
    <path opacity="0.2" d="M302.223 199.819C314.911 195.503 321.346 190.329 321.346 184.425C321.347 183.719 321.254 183.017 321.07 182.336C319.719 187.381 313.396 191.857 302.219 195.654C292.517 198.951 280.687 201.079 272.086 201.083L64.7073 201.081C62.4114 201.081 60.547 199.216 60.5425 196.916L60.5423 180.257L60.5467 167.764L60.5423 167.768L60.547 201.081C60.5425 203.382 62.407 205.246 64.7117 205.246L272.086 205.244C280.692 205.244 292.521 203.116 302.223 199.819Z" fill="white"/>
    </g>
    <defs>
    <clipPath id="clip0_22_13">
    <rect width="200" height="200" fill="white" transform="translate(183.579 43) rotate(45)"/>
    </clipPath>
    </defs>
    </svg>
    